<svg viewBox="0 0 17 16" xmlns="http://www.w3.org/2000/svg"><g fill="#434343" fill-rule="evenodd" transform="translate(1)"><path d="m12.492 9.019c-1.915 0-3.469 1.553-3.469 3.47 0 1.916 1.554 3.469 3.469 3.469 1.917 0 3.47-1.553 3.47-3.469 0-1.918-1.553-3.47-3.47-3.47zm.041 6.098c-1.452 0-2.629-1.168-2.629-2.609 0-1.44 1.177-2.609 2.629-2.609 1.453 0 2.632 1.169 2.632 2.609 0 1.441-1.179 2.609-2.632 2.609z"/><path d="m3.512.079c-1.892 0-3.426 1.535-3.426 3.427 0 1.894 1.534 3.428 3.426 3.428 1.893 0 3.428-1.534 3.428-3.428-.001-1.892-1.536-3.427-3.428-3.427zm0 6.016c-1.428 0-2.587-1.16-2.587-2.589 0-1.427 1.159-2.587 2.587-2.587s2.589 1.16 2.589 2.587c0 1.429-1.162 2.589-2.589 2.589z"/><path d="m7.006 9.97-.906-.907-2.56 2.561-2.561-2.561-.907.907 2.561 2.561-2.561 2.559.907.906 2.561-2.558 2.56 2.558.906-.906-2.56-2.559z"/><path d="m16.057.926-.912-.913-2.577 2.577-2.576-2.577-.911.913 2.576 2.576-2.576 2.574.911.912 2.576-2.575 2.577 2.575.912-.912-2.576-2.574z"/></g></svg>